<svg xmlns:inkscape="http://www.inkscape.org/namespaces/inkscape" xmlns:sodipodi="http://sodipodi.sourceforge.net/DTD/sodipodi-0.dtd" xmlns="http://www.w3.org/2000/svg" xmlns:svg="http://www.w3.org/2000/svg" xmlns:rdf="http://www.w3.org/1999/02/22-rdf-syntax-ns#" xmlns:cc="http://creativecommons.org/ns#" xmlns:dc="http://purl.org/dc/elements/1.1/" viewBox="0 0 10.583333 13.2291675" version="1.1" x="0px" y="0px"><g><path style="color:#000000;paint-order:fill markers stroke;" d="M 8.3322726,1.3229784 C 8.0916181,1.3268678 7.8509875,1.4213402 7.6682293,1.6040982 L 7.402614,1.869715 4.1289113,5.1434167 A 0.26460995,0.26460995 0 0 0 4.05863,5.2684737 l -0.2930049,1.230416 a 0.26460995,0.26460995 0 0 0 0.3203946,0.318327 l 1.2283492,-0.293005 a 0.26460995,0.26460995 0 0 0 0.1250554,-0.07028 L 8.713127,3.1802297 8.9787449,2.9146127 C 9.3442562,2.5490947 9.3596232,1.9519057 8.9963132,1.5885952 8.8146582,1.4069418 8.572927,1.3190877 8.3322726,1.3229784 Z m 0.00619,0.5250326 c 0.1036664,-0.00235 0.2050018,0.036019 0.2826703,0.1136877 0.1553395,0.155338 0.1540271,0.40873 -0.017568,0.580326 l -0.078031,0.07803 -0.5606891,-0.562756 0.078031,-0.07803 c 0.0858,-0.085799 0.1919243,-0.1288953 0.295588,-0.1312577 z M 2.4220313,1.9947717 c -0.6043454,0 -1.0996745,0.493264 -1.0996745,1.097608 v 5.068424 c 0,0.604345 0.4953291,1.099675 1.0996745,1.099675 h 5.0684244 c 0.6043454,0 1.0996745,-0.49533 1.0996745,-1.099675 V 4.8524787 A 0.26458299,0.26458299 0 0 0 8.3245123,4.5868617 0.26458299,0.26458299 0 0 0 8.0604449,4.8524787 v 3.308325 c 0,0.320341 -0.2496502,0.570508 -0.5699892,0.570508 H 2.4220392 c -0.3203416,0 -0.5705078,-0.250167 -0.5705078,-0.570508 v -5.068424 c 0,-0.32034 0.2501662,-0.569991 0.5705078,-0.569991 h 3.2871357 a 0.26458299,0.26458299 0 0 0 0.2635515,-0.264067 0.26458299,0.26458299 0 0 0 -0.2635515,-0.26355 z m 5.1676432,0.4377 0.5606891,0.560689 -2.6287809,2.63033 -0.5617237,-0.561723 z m -3.0039522,3.003434 0.5617237,0.561723 -0.028422,0.02842 -0.7379414,0.1757 0.1757019,-0.73639 z" fill="#000000" fill-rule="evenodd" stroke-width="1" stroke-linecap="round" stroke-linejoin="round"/></g><text x="0" y="25.583334" fill="#000000" font-size="5px" font-weight="bold" font-family="'Helvetica Neue', Helvetica, Arial-Unicode, Arial, Sans-serif">Created by Alzam</text><text x="0" y="30.583334" fill="#000000" font-size="5px" font-weight="bold" font-family="'Helvetica Neue', Helvetica, Arial-Unicode, Arial, Sans-serif">from the Noun Project</text></svg>